<svg id="Layer_1" data-name="Layer 1" xmlns="http://www.w3.org/2000/svg" viewBox="0 0 512 512"><defs><style>.cls-1{fill:#ffd38d;}.cls-2{fill:#6d4135;}</style></defs><title>magnifying-glass-filled</title><circle class="cls-1" cx="213.33" cy="213.33" r="192"/><path class="cls-2" d="M505.75,475.58,378.44,348.27a212.33,212.33,0,0,0,48.23-134.94C426.67,95.7,331,0,213.33,0S0,95.7,0,213.33,95.7,426.67,213.33,426.67a212.33,212.33,0,0,0,134.94-48.23L475.58,505.75a21.33,21.33,0,0,0,30.17-30.17ZM42.67,213.33c0-94.1,76.56-170.67,170.67-170.67S384,119.23,384,213.33,307.44,384,213.33,384,42.67,307.44,42.67,213.33Z"/></svg>